# Blender 5.1.2
# www.blender.org
mtllib player.mtl
o player
v -0.400000 -0.300000 -0.600000
v 0.400000 -0.300000 -0.600000
v 0.400000 -0.300000 0.600000
v -0.400000 -0.300000 0.600000
v -0.400000 0.700000 -0.600000
v 0.400000 0.700000 -0.600000
v 0.400000 0.700000 0.600000
v -0.400000 0.700000 0.600000
v -0.300000 0.650000 0.650000
v 0.300000 0.650000 0.650000
v 0.300000 0.650000 1.150000
v -0.300000 0.650000 1.150000
v -0.300000 1.150000 0.650000
v 0.300000 1.150000 0.650000
v 0.300000 1.150000 1.150000
v -0.300000 1.150000 1.150000
v -0.500000 1.000000 0.750000
v -0.200000 1.000000 0.750000
v -0.200000 1.000000 1.050000
v -0.500000 1.000000 1.050000
v -0.500000 1.300000 0.750000
v -0.200000 1.300000 0.750000
v -0.200000 1.300000 1.050000
v -0.500000 1.300000 1.050000
v 0.200000 1.000000 0.750000
v 0.500000 1.000000 0.750000
v 0.500000 1.000000 1.050000
v 0.200000 1.000000 1.050000
v 0.200000 1.300000 0.750000
v 0.500000 1.300000 0.750000
v 0.500000 1.300000 1.050000
v 0.200000 1.300000 1.050000
v -0.275000 0.925000 1.100000
v -0.125000 0.925000 1.100000
v -0.125000 0.925000 1.200000
v -0.275000 0.925000 1.200000
v -0.275000 1.075000 1.100000
v -0.125000 1.075000 1.100000
v -0.125000 1.075000 1.200000
v -0.275000 1.075000 1.200000
v 0.125000 0.925000 1.100000
v 0.275000 0.925000 1.100000
v 0.275000 0.925000 1.200000
v 0.125000 0.925000 1.200000
v 0.125000 1.075000 1.100000
v 0.275000 1.075000 1.100000
v 0.275000 1.075000 1.200000
v 0.125000 1.075000 1.200000
v -0.060000 0.800000 1.110000
v 0.060000 0.800000 1.110000
v 0.060000 0.800000 1.190000
v -0.060000 0.800000 1.190000
v -0.060000 0.900000 1.110000
v 0.060000 0.900000 1.110000
v 0.060000 0.900000 1.190000
v -0.060000 0.900000 1.190000
v -0.650000 -0.100000 0.350000
v -0.350000 -0.100000 0.350000
v -0.350000 -0.100000 0.650000
v -0.650000 -0.100000 0.650000
v -0.650000 0.300000 0.350000
v -0.350000 0.300000 0.350000
v -0.350000 0.300000 0.650000
v -0.650000 0.300000 0.650000
v 0.350000 -0.100000 0.350000
v 0.650000 -0.100000 0.350000
v 0.650000 -0.100000 0.650000
v 0.350000 -0.100000 0.650000
v 0.350000 0.300000 0.350000
v 0.650000 0.300000 0.350000
v 0.650000 0.300000 0.650000
v 0.350000 0.300000 0.650000
v -0.650000 -0.100000 -0.750000
v -0.350000 -0.100000 -0.750000
v -0.350000 -0.100000 -0.450000
v -0.650000 -0.100000 -0.450000
v -0.650000 0.300000 -0.750000
v -0.350000 0.300000 -0.750000
v -0.350000 0.300000 -0.450000
v -0.650000 0.300000 -0.450000
v 0.350000 -0.100000 -0.750000
v 0.650000 -0.100000 -0.750000
v 0.650000 -0.100000 -0.450000
v 0.350000 -0.100000 -0.450000
v 0.350000 0.300000 -0.750000
v 0.650000 0.300000 -0.750000
v 0.650000 0.300000 -0.450000
v 0.350000 0.300000 -0.450000
v -0.100000 0.400000 -1.350000
v 0.100000 0.400000 -1.350000
v 0.100000 0.400000 -0.850000
v -0.100000 0.400000 -0.850000
v -0.100000 0.600000 -1.350000
v 0.100000 0.600000 -1.350000
v 0.100000 0.600000 -0.850000
v -0.100000 0.600000 -0.850000
vn -0.0000 -1.0000 -0.0000
vn -0.0000 1.0000 -0.0000
vn -0.0000 -0.0000 -1.0000
vn 1.0000 -0.0000 -0.0000
vn -0.0000 -0.0000 1.0000
vn -1.0000 -0.0000 -0.0000
vt 0.000000 0.666667
vt 0.222222 0.333333
vt 0.222222 0.666667
vt 0.222222 0.333333
vt 0.444444 0.666667
vt 0.222222 0.666667
vt 0.666667 0.611111
vt 0.444444 0.333333
vt 0.666667 0.333333
vt 0.000000 0.333333
vt 0.277778 0.000000
vt 0.277778 0.333333
vt 0.777778 0.277778
vt 0.555556 0.000000
vt 0.777778 0.000000
vt 0.277778 0.333333
vt 0.277778 0.000000
vt 0.444444 0.611111
vt 0.000000 0.000000
vt 0.555556 0.277778
vt 0.555556 0.333333
vt 0.583333 0.777778
vt 0.444444 0.611111
vt 0.583333 0.611111
vt 0.722222 0.611111
vt 0.722222 0.777778
vt 0.805556 0.333333
vt 0.666667 0.500000
vt 0.666667 0.333333
vt 0.277778 0.805556
vt 0.138889 0.666667
vt 0.277778 0.666667
vt 0.138889 0.666667
vt -0.000000 0.833333
vt -0.000000 0.666667
vt 0.416667 0.666667
vt 0.277778 0.805556
vt 0.277778 0.666667
vt 0.444444 0.777778
vt 0.805556 0.500000
vt 0.138889 0.805556
vt 0.138889 0.833333
vt 0.416667 0.805556
vt 0.972222 0.555556
vt 0.888889 0.472222
vt 0.972222 0.472222
vt 0.916667 0.083333
vt 1.000000 0.000000
vt 1.000000 0.083333
vt 0.083333 0.916667
vt 0.000000 1.000000
vt 0.000000 0.916667
vt 0.611111 0.972222
vt 0.527778 0.888889
vt 0.611111 0.888889
vt 0.083333 0.833333
vt -0.000000 0.916667
vt 0.000000 0.833333
vt 1.000000 0.250000
vt 0.916667 0.333333
vt 0.916667 0.250000
vt 1.000000 0.166667
vt 0.888889 0.638889
vt 0.972222 0.555556
vt 0.972222 0.638889
vt 0.805556 0.833333
vt 0.722222 0.916667
vt 0.722222 0.833333
vt 0.694444 0.972222
vt 0.611111 0.888889
vt 0.694444 0.888889
vt 0.222222 0.916667
vt 0.138889 1.000000
vt 0.138889 0.916667
vt 0.388889 0.916667
vt 0.305556 1.000000
vt 0.305556 0.916667
vt 0.888889 0.555556
vt 0.916667 -0.000000
vt 0.083333 1.000000
vt 0.527778 0.972222
vt 0.083333 0.916667
vt 1.000000 0.333333
vt 0.916667 0.166667
vt 0.888889 0.555556
vt 0.805556 0.916667
vt 0.611111 0.972222
vt 0.222222 1.000000
vt 0.388889 1.000000
vt 0.833333 0.486111
vt 0.805556 0.444444
vt 0.833333 0.444444
vt 0.694444 0.861111
vt 0.722222 0.819445
vt 0.722222 0.861111
vt 0.708333 0.319444
vt 0.666667 0.277778
vt 0.708333 0.277778
vt 0.444444 0.791667
vt 0.416667 0.750000
vt 0.444444 0.750000
vt 0.750000 0.319444
vt 0.708333 0.277778
vt 0.750000 0.277778
vt 0.416667 0.666667
vt 0.444444 0.708333
vt 0.416667 0.708333
vt 0.888889 0.319444
vt 0.861111 0.277778
vt 0.888889 0.277778
vt 0.388889 0.888889
vt 0.416667 0.847222
vt 0.416667 0.888889
vt 0.430556 0.847222
vt 0.388889 0.805556
vt 0.430556 0.805556
vt 0.722222 0.819444
vt 0.694444 0.777778
vt 0.722222 0.777778
vt 0.125000 0.875000
vt 0.083333 0.833333
vt 0.125000 0.833333
vt 0.444444 0.750000
vt 0.416667 0.750000
vt 0.805556 0.486111
vt 0.694444 0.819445
vt 0.666667 0.319444
vt 0.416667 0.791667
vt 0.708333 0.319444
vt 0.444444 0.666667
vt 0.861111 0.319444
vt 0.388889 0.847222
vt 0.388889 0.847222
vt 0.694444 0.819444
vt 0.083333 0.875000
vt 0.772222 0.311111
vt 0.750000 0.277778
vt 0.772222 0.277778
vt 0.083333 0.908333
vt 0.105556 0.875000
vt 0.105556 0.908333
vt 0.444444 0.847222
vt 0.416667 0.880556
vt 0.416667 0.847222
vt 0.855555 0.472222
vt 0.833333 0.444444
vt 0.855555 0.444444
vt 0.722222 0.861111
vt 0.694444 0.894444
vt 0.694444 0.861111
vt 0.855555 0.444444
vt 0.877778 0.472222
vt 0.855555 0.472222
vt 0.750000 0.311111
vt 0.083333 0.875000
vt 0.444444 0.880556
vt 0.833333 0.472222
vt 0.722222 0.894444
vt 0.877778 0.444444
vt 0.916667 0.250000
vt 1.000000 0.166667
vt 1.000000 0.250000
vt 0.888889 0.833333
vt 0.888889 0.916667
vt 0.527778 0.888889
vt 0.444444 0.777778
vt 0.527778 0.777778
vt 0.861111 0.333333
vt 0.777778 0.222222
vt 0.861111 0.222222
vt 0.611111 0.888889
vt 0.611111 0.777778
vt 0.750000 0.500000
vt 0.833333 0.611111
vt 0.750000 0.611111
vt 0.527778 0.972222
vt 0.444444 0.888889
vt 0.527778 0.888889
vt 0.222222 0.916667
vt 0.222222 1.000000
vt 0.888889 0.722222
vt 0.805556 0.611111
vt 0.888889 0.611111
vt 0.888889 0.444444
vt 0.805556 0.333333
vt 0.888889 0.333333
vt 0.694444 0.888889
vt 0.611111 0.777778
vt 0.694444 0.777778
vt 0.722222 0.722222
vt 0.805556 0.833333
vt 0.722222 0.833333
vt 0.972222 0.722222
vt 0.888889 0.638889
vt 0.972222 0.638889
vt 0.888889 0.805556
vt 0.972222 0.888889
vt 0.888889 0.888889
vt 0.805556 0.722222
vt 0.888889 0.722222
vt 0.666667 0.500000
vt 0.138889 0.805556
vt 0.222222 0.805556
vt 0.777778 0.000000
vt 0.861111 0.111111
vt 0.777778 0.111111
vt 0.888889 0.972222
vt 0.972222 0.888889
vt 0.972222 0.972222
vt 0.972222 0.722222
vt 0.972222 0.805556
vt 0.305556 0.916667
vt 0.222222 0.805556
vt 0.305556 0.805556
vt 0.805556 0.722222
vt 0.805556 0.611111
vt 0.388889 0.916667
vt 0.305555 0.805556
vt 0.388889 0.805556
vt 0.777778 0.111111
vt 0.861111 0.222222
vt 0.777778 0.222222
vt 0.916667 0.166667
vt 0.444444 0.888889
vt 0.777778 0.333333
vt 0.833333 0.500000
vt 0.444444 0.972222
vt 0.805556 0.722222
vt 0.805556 0.444444
vt 0.611111 0.888889
vt 0.666667 0.611111
vt 0.138889 0.916667
vt 0.861111 0.000000
vt 0.888889 0.888889
vt 0.722222 0.722222
vt 0.305555 0.916667
vt 0.861111 0.277778
vt 0.916667 0.138889
vt 0.916667 0.277778
vt 0.888889 0.333333
vt 0.944444 0.472222
vt 0.611111 0.277778
vt 0.555556 0.333333
vt 0.555556 0.277778
vt 0.833333 0.611111
vt 0.611111 0.333333
vt 0.611111 0.277778
vt 0.916667 0.000000
vt 0.861111 0.138889
vt 0.861111 0.000000
vt 0.944444 0.333333
vt 0.666667 0.333333
s 1
usemtl body
f 2/1/1 4/2/1 1/3/1
f 8/4/2 6/5/2 5/6/2
f 5/7/3 2/8/3 1/9/3
f 6/10/4 3/11/4 2/12/4
f 7/13/5 4/14/5 3/15/5
f 8/14/6 1/16/6 4/17/6
f 2/1/1 3/10/1 4/2/1
f 8/4/2 7/8/2 6/5/2
f 5/7/3 6/18/3 2/8/3
f 6/10/4 7/19/4 3/11/4
f 7/13/5 8/20/5 4/14/5
f 8/14/6 5/21/6 1/16/6
usemtl body
f 10/22/1 12/23/1 9/24/1
f 16/22/2 14/25/2 13/26/2
f 13/27/3 10/28/3 9/29/3
f 14/30/4 11/31/4 10/32/4
f 15/33/5 12/34/5 11/35/5
f 16/36/6 9/37/6 12/38/6
f 10/22/1 11/39/1 12/23/1
f 16/22/2 15/24/2 14/25/2
f 13/27/3 14/40/3 10/28/3
f 14/30/4 15/41/4 11/31/4
f 15/33/5 16/42/5 12/34/5
f 16/36/6 13/43/6 9/37/6
usemtl ears
f 18/44/1 20/45/1 17/46/1
f 24/47/2 22/48/2 21/49/2
f 21/50/3 18/51/3 17/52/3
f 22/53/4 19/54/4 18/55/4
f 23/56/5 20/57/5 19/58/5
f 24/59/6 17/60/6 20/61/6
f 26/62/1 28/47/1 25/49/1
f 32/63/2 30/64/2 29/65/2
f 29/66/3 26/67/3 25/68/3
f 30/69/4 27/70/4 26/71/4
f 31/72/5 28/73/5 27/74/5
f 32/75/6 25/76/6 28/77/6
f 18/44/1 19/78/1 20/45/1
f 24/47/2 23/79/2 22/48/2
f 21/50/3 22/80/3 18/51/3
f 22/53/4 23/81/4 19/54/4
f 23/56/5 24/82/5 20/57/5
f 24/59/6 21/83/6 17/60/6
f 26/62/1 27/84/1 28/47/1
f 32/63/2 31/85/2 30/64/2
f 29/66/3 30/86/3 26/67/3
f 30/69/4 31/87/4 27/70/4
f 31/72/5 32/88/5 28/73/5
f 32/75/6 29/89/6 25/76/6
usemtl eyes
f 34/90/1 36/91/1 33/92/1
f 40/93/2 38/94/2 37/95/2
f 37/96/3 34/97/3 33/98/3
f 38/99/4 35/100/4 34/101/4
f 39/102/5 36/103/5 35/104/5
f 40/105/6 33/106/6 36/107/6
f 42/108/1 44/109/1 41/110/1
f 48/111/2 46/112/2 45/113/2
f 45/114/3 42/115/3 41/116/3
f 46/117/4 43/118/4 42/119/4
f 47/120/5 44/121/5 43/122/5
f 48/107/6 41/123/6 44/124/6
f 34/90/1 35/125/1 36/91/1
f 40/93/2 39/126/2 38/94/2
f 37/96/3 38/127/3 34/97/3
f 38/99/4 39/128/4 35/100/4
f 39/102/5 40/129/5 36/103/5
f 40/105/6 37/130/6 33/106/6
f 42/108/1 43/131/1 44/109/1
f 48/111/2 47/132/2 46/112/2
f 45/114/3 46/133/3 42/115/3
f 46/117/4 47/134/4 43/118/4
f 47/120/5 48/135/5 44/121/5
f 48/107/6 45/106/6 41/123/6
usemtl nose
f 50/136/1 52/137/1 49/138/1
f 56/139/2 54/140/2 53/141/2
f 53/142/3 50/143/3 49/144/3
f 54/145/4 51/146/4 50/147/4
f 55/148/5 52/149/5 51/150/5
f 56/151/6 49/152/6 52/153/6
f 50/136/1 51/154/1 52/137/1
f 56/139/2 55/155/2 54/140/2
f 53/142/3 54/156/3 50/143/3
f 54/145/4 55/157/4 51/146/4
f 55/148/5 56/158/5 52/149/5
f 56/151/6 53/159/6 49/152/6
usemtl body
f 58/160/1 60/161/1 57/162/1
f 64/86/2 62/163/2 61/164/2
f 61/165/3 58/166/3 57/167/3
f 62/168/4 59/169/4 58/170/4
f 63/171/5 60/167/5 59/172/5
f 64/173/6 57/174/6 60/175/6
f 66/176/1 68/177/1 65/178/1
f 72/179/2 70/76/2 69/180/2
f 69/181/3 66/182/3 65/183/3
f 70/184/4 67/185/4 66/186/4
f 71/187/5 68/188/5 67/189/5
f 72/190/6 65/191/6 68/192/6
f 74/193/1 76/194/1 73/195/1
f 80/196/2 78/197/2 77/198/2
f 77/163/3 74/199/3 73/200/3
f 78/175/4 75/201/4 74/173/4
f 79/72/5 76/202/5 75/203/5
f 80/204/6 73/205/6 76/206/6
f 82/207/1 84/208/1 81/209/1
f 88/196/2 86/210/2 85/211/2
f 85/212/3 82/213/3 81/214/3
f 86/215/4 83/25/4 82/216/4
f 87/217/5 84/218/5 83/219/5
f 88/220/6 81/221/6 84/222/6
f 58/160/1 59/223/1 60/161/1
f 64/86/2 63/191/2 62/163/2
f 61/165/3 62/224/3 58/166/3
f 62/168/4 63/225/4 59/169/4
f 63/171/5 64/165/5 60/167/5
f 64/173/6 61/226/6 57/174/6
f 66/176/1 67/227/1 68/177/1
f 72/179/2 71/212/2 70/76/2
f 69/181/3 70/228/3 66/182/3
f 70/184/4 71/229/4 67/185/4
f 71/187/5 72/230/5 68/188/5
f 72/190/6 69/199/6 65/191/6
f 74/193/1 75/181/1 76/194/1
f 80/196/2 79/211/2 78/197/2
f 77/163/3 78/191/3 74/199/3
f 78/175/4 79/231/4 75/201/4
f 79/72/5 80/232/5 76/202/5
f 80/204/6 77/233/6 73/205/6
f 82/207/1 83/234/1 84/208/1
f 88/196/2 87/200/2 86/210/2
f 85/212/3 86/179/3 82/213/3
f 86/215/4 87/235/4 83/25/4
f 87/217/5 88/236/5 84/218/5
f 88/220/6 85/205/6 81/221/6
usemtl body
f 90/237/1 92/238/1 89/239/1
f 96/240/2 94/241/2 93/45/2
f 93/242/3 90/243/3 89/244/3
f 94/245/4 91/45/4 90/183/4
f 95/97/5 92/246/5 91/247/5
f 96/248/6 89/249/6 92/250/6
f 90/237/1 91/249/1 92/238/1
f 96/240/2 95/251/2 94/241/2
f 93/242/3 94/246/3 90/243/3
f 94/245/4 95/157/4 91/45/4
f 95/97/5 96/252/5 92/246/5
f 96/248/6 93/238/6 89/249/6
